ISO-10303-21;
HEADER;
FILE_DESCRIPTION(('FreeCAD Model'),'2;1');
FILE_NAME('Open CASCADE Shape Model','2026-05-23T12:06:00',('Author'),(
    ''),'Open CASCADE STEP processor 7.8','FreeCAD','Unknown');
FILE_SCHEMA(('AUTOMOTIVE_DESIGN { 1 0 10303 214 1 1 1 1 }'));
ENDSEC;
DATA;
#1 = APPLICATION_PROTOCOL_DEFINITION('international standard',
  'automotive_design',2000,#2);
#2 = APPLICATION_CONTEXT(
  'core data for automotive mechanical design processes');
#3 = SHAPE_DEFINITION_REPRESENTATION(#4,#10);
#4 = PRODUCT_DEFINITION_SHAPE('','',#5);
#5 = PRODUCT_DEFINITION('design','',#6,#9);
#6 = PRODUCT_DEFINITION_FORMATION('','',#7);
#7 = PRODUCT('Body','Body','',(#8));
#8 = PRODUCT_CONTEXT('',#2,'mechanical');
#9 = PRODUCT_DEFINITION_CONTEXT('part definition',#2,'design');
#10 = ADVANCED_BREP_SHAPE_REPRESENTATION('',(#11,#15),#1282);
#11 = AXIS2_PLACEMENT_3D('',#12,#13,#14);
#12 = CARTESIAN_POINT('',(0.,0.,0.));
#13 = DIRECTION('',(0.,0.,1.));
#14 = DIRECTION('',(1.,0.,-0.));
#15 = MANIFOLD_SOLID_BREP('',#16);
#16 = CLOSED_SHELL('',(#17,#57,#138,#163,#230,#338,#361,#386,#494,#506,
    #523,#534,#558,#614,#631,#656,#672,#684,#701,#775,#822,#911,#945,
    #1011,#1027,#1039,#1065,#1091,#1100,#1148,#1173,#1191,#1247,#1265));
#17 = ADVANCED_FACE('',(#18),#52,.F.);
#18 = FACE_BOUND('',#19,.F.);
#19 = EDGE_LOOP('',(#20,#30,#38,#46));
#20 = ORIENTED_EDGE('',*,*,#21,.T.);
#21 = EDGE_CURVE('',#22,#24,#26,.T.);
#22 = VERTEX_POINT('',#23);
#23 = CARTESIAN_POINT('',(18.,-88.5,21.051660258496));
#24 = VERTEX_POINT('',#25);
#25 = CARTESIAN_POINT('',(18.,-48.5,21.051660258496));
#26 = LINE('',#27,#28);
#27 = CARTESIAN_POINT('',(18.,-88.5,21.051660258496));
#28 = VECTOR('',#29,1.);
#29 = DIRECTION('',(0.,1.,-2.22044604925E-16));
#30 = ORIENTED_EDGE('',*,*,#31,.T.);
#31 = EDGE_CURVE('',#24,#32,#34,.T.);
#32 = VERTEX_POINT('',#33);
#33 = CARTESIAN_POINT('',(8.948339741504,-48.5,12.));
#34 = LINE('',#35,#36);
#35 = CARTESIAN_POINT('',(18.,-48.5,21.051660258496));
#36 = VECTOR('',#37,1.);
#37 = DIRECTION('',(-0.707106781187,-1.570092458684E-16,-0.707106781187)
  );
#38 = ORIENTED_EDGE('',*,*,#39,.F.);
#39 = EDGE_CURVE('',#40,#32,#42,.T.);
#40 = VERTEX_POINT('',#41);
#41 = CARTESIAN_POINT('',(8.948339741504,-88.5,12.));
#42 = LINE('',#43,#44);
#43 = CARTESIAN_POINT('',(8.948339741504,-88.5,12.));
#44 = VECTOR('',#45,1.);
#45 = DIRECTION('',(0.,1.,-2.22044604925E-16));
#46 = ORIENTED_EDGE('',*,*,#47,.F.);
#47 = EDGE_CURVE('',#22,#40,#48,.T.);
#48 = LINE('',#49,#50);
#49 = CARTESIAN_POINT('',(18.,-88.5,21.051660258496));
#50 = VECTOR('',#51,1.);
#51 = DIRECTION('',(-0.707106781187,-1.570092458684E-16,-0.707106781187)
  );
#52 = PLANE('',#53);
#53 = AXIS2_PLACEMENT_3D('',#54,#55,#56);
#54 = CARTESIAN_POINT('',(18.,-88.5,21.051660258496));
#55 = DIRECTION('',(-0.707106781187,1.570092458684E-16,0.707106781187));
#56 = DIRECTION('',(-0.707106781187,-1.570092458684E-16,-0.707106781187)
  );
#57 = ADVANCED_FACE('',(#58),#133,.F.);
#58 = FACE_BOUND('',#59,.F.);
#59 = EDGE_LOOP('',(#60,#70,#78,#86,#94,#102,#109,#110,#118,#126));
#60 = ORIENTED_EDGE('',*,*,#61,.F.);
#61 = EDGE_CURVE('',#62,#64,#66,.T.);
#62 = VERTEX_POINT('',#63);
#63 = CARTESIAN_POINT('',(18.,-43.5,48.));
#64 = VERTEX_POINT('',#65);
#65 = CARTESIAN_POINT('',(18.,-43.5,46.01940755337));
#66 = LINE('',#67,#68);
#67 = CARTESIAN_POINT('',(18.,-43.5,48.));
#68 = VECTOR('',#69,1.);
#69 = DIRECTION('',(0.,-2.22044604925E-16,-1.));
#70 = ORIENTED_EDGE('',*,*,#71,.F.);
#71 = EDGE_CURVE('',#72,#62,#74,.T.);
#72 = VERTEX_POINT('',#73);
#73 = CARTESIAN_POINT('',(18.,-18.5,48.));
#74 = LINE('',#75,#76);
#75 = CARTESIAN_POINT('',(18.,-53.5,48.));
#76 = VECTOR('',#77,1.);
#77 = DIRECTION('',(-0.,-1.,-0.));
#78 = ORIENTED_EDGE('',*,*,#79,.T.);
#79 = EDGE_CURVE('',#72,#80,#82,.T.);
#80 = VERTEX_POINT('',#81);
#81 = CARTESIAN_POINT('',(18.,-18.5,12.));
#82 = LINE('',#83,#84);
#83 = CARTESIAN_POINT('',(18.,-18.5,60.));
#84 = VECTOR('',#85,1.);
#85 = DIRECTION('',(-0.,-0.,-1.));
#86 = ORIENTED_EDGE('',*,*,#87,.T.);
#87 = EDGE_CURVE('',#80,#88,#90,.T.);
#88 = VERTEX_POINT('',#89);
#89 = CARTESIAN_POINT('',(18.,-43.5,12.));
#90 = LINE('',#91,#92);
#91 = CARTESIAN_POINT('',(18.,-53.5,12.));
#92 = VECTOR('',#93,1.);
#93 = DIRECTION('',(-0.,-1.,-0.));
#94 = ORIENTED_EDGE('',*,*,#95,.T.);
#95 = EDGE_CURVE('',#88,#96,#98,.T.);
#96 = VERTEX_POINT('',#97);
#97 = CARTESIAN_POINT('',(18.,-43.5,13.98059244663));
#98 = LINE('',#99,#100);
#99 = CARTESIAN_POINT('',(18.,-43.5,12.));
#100 = VECTOR('',#101,1.);
#101 = DIRECTION('',(0.,2.22044604925E-16,1.));
#102 = ORIENTED_EDGE('',*,*,#103,.F.);
#103 = EDGE_CURVE('',#24,#96,#104,.T.);
#104 = ELLIPSE('',#105,7.071067811865,5.);
#105 = AXIS2_PLACEMENT_3D('',#106,#107,#108);
#106 = CARTESIAN_POINT('',(18.,-48.5,13.98059244663));
#107 = DIRECTION('',(-1.,0.,0.));
#108 = DIRECTION('',(-0.,-2.22044604925E-16,-1.));
#109 = ORIENTED_EDGE('',*,*,#21,.F.);
#110 = ORIENTED_EDGE('',*,*,#111,.F.);
#111 = EDGE_CURVE('',#112,#22,#114,.T.);
#112 = VERTEX_POINT('',#113);
#113 = CARTESIAN_POINT('',(18.,-88.5,38.948339741504));
#114 = LINE('',#115,#116);
#115 = CARTESIAN_POINT('',(18.,-88.5,60.));
#116 = VECTOR('',#117,1.);
#117 = DIRECTION('',(-0.,-0.,-1.));
#118 = ORIENTED_EDGE('',*,*,#119,.T.);
#119 = EDGE_CURVE('',#112,#120,#122,.T.);
#120 = VERTEX_POINT('',#121);
#121 = CARTESIAN_POINT('',(18.,-48.5,38.948339741504));
#122 = LINE('',#123,#124);
#123 = CARTESIAN_POINT('',(18.,-88.5,38.948339741504));
#124 = VECTOR('',#125,1.);
#125 = DIRECTION('',(0.,1.,-2.22044604925E-16));
#126 = ORIENTED_EDGE('',*,*,#127,.T.);
#127 = EDGE_CURVE('',#120,#64,#128,.T.);
#128 = ELLIPSE('',#129,7.071067811865,5.);
#129 = AXIS2_PLACEMENT_3D('',#130,#131,#132);
#130 = CARTESIAN_POINT('',(18.,-48.5,46.01940755337));
#131 = DIRECTION('',(1.,0.,-0.));
#132 = DIRECTION('',(0.,2.22044604925E-16,1.));
#133 = PLANE('',#134);
#134 = AXIS2_PLACEMENT_3D('',#135,#136,#137);
#135 = CARTESIAN_POINT('',(18.,-18.5,60.));
#136 = DIRECTION('',(-1.,0.,0.));
#137 = DIRECTION('',(0.,-1.,0.));
#138 = ADVANCED_FACE('',(#139),#158,.F.);
#139 = FACE_BOUND('',#140,.F.);
#140 = EDGE_LOOP('',(#141,#142,#150,#157));
#141 = ORIENTED_EDGE('',*,*,#103,.T.);
#142 = ORIENTED_EDGE('',*,*,#143,.T.);
#143 = EDGE_CURVE('',#96,#144,#146,.T.);
#144 = VERTEX_POINT('',#145);
#145 = CARTESIAN_POINT('',(16.01940755337,-43.5,12.));
#146 = LINE('',#147,#148);
#147 = CARTESIAN_POINT('',(21.535533905933,-43.5,17.516126352563));
#148 = VECTOR('',#149,1.);
#149 = DIRECTION('',(-0.707106781187,-1.570092458684E-16,-0.707106781187
    ));
#150 = ORIENTED_EDGE('',*,*,#151,.F.);
#151 = EDGE_CURVE('',#32,#144,#152,.T.);
#152 = ELLIPSE('',#153,7.071067811865,5.);
#153 = AXIS2_PLACEMENT_3D('',#154,#155,#156);
#154 = CARTESIAN_POINT('',(16.01940755337,-48.5,12.));
#155 = DIRECTION('',(0.,0.,-1.));
#156 = DIRECTION('',(-1.,-2.22044604925E-16,-0.));
#157 = ORIENTED_EDGE('',*,*,#31,.F.);
#158 = CYLINDRICAL_SURFACE('',#159,5.);
#159 = AXIS2_PLACEMENT_3D('',#160,#161,#162);
#160 = CARTESIAN_POINT('',(21.535533905933,-48.5,17.516126352563));
#161 = DIRECTION('',(-0.707106781187,-1.570092458684E-16,-0.707106781187
    ));
#162 = DIRECTION('',(-0.707106781187,1.570092458684E-16,0.707106781187)
  );
#163 = ADVANCED_FACE('',(#164,#214),#225,.F.);
#164 = FACE_BOUND('',#165,.F.);
#165 = EDGE_LOOP('',(#166,#167,#175,#183,#191,#199,#207,#213));
#166 = ORIENTED_EDGE('',*,*,#47,.T.);
#167 = ORIENTED_EDGE('',*,*,#168,.T.);
#168 = EDGE_CURVE('',#40,#169,#171,.T.);
#169 = VERTEX_POINT('',#170);
#170 = CARTESIAN_POINT('',(-8.948339741504,-88.5,12.));
#171 = LINE('',#172,#173);
#172 = CARTESIAN_POINT('',(40.,-88.5,12.));
#173 = VECTOR('',#174,1.);
#174 = DIRECTION('',(-1.,-0.,-0.));
#175 = ORIENTED_EDGE('',*,*,#176,.F.);
#176 = EDGE_CURVE('',#177,#169,#179,.T.);
#177 = VERTEX_POINT('',#178);
#178 = CARTESIAN_POINT('',(-18.,-88.5,21.051660258496));
#179 = LINE('',#180,#181);
#180 = CARTESIAN_POINT('',(-18.,-88.5,21.051660258496));
#181 = VECTOR('',#182,1.);
#182 = DIRECTION('',(0.707106781187,-1.570092458684E-16,-0.707106781187)
  );
#183 = ORIENTED_EDGE('',*,*,#184,.F.);
#184 = EDGE_CURVE('',#185,#177,#187,.T.);
#185 = VERTEX_POINT('',#186);
#186 = CARTESIAN_POINT('',(-18.,-88.5,39.514718625761));
#187 = LINE('',#188,#189);
#188 = CARTESIAN_POINT('',(-18.,-88.5,60.));
#189 = VECTOR('',#190,1.);
#190 = DIRECTION('',(-0.,-0.,-1.));
#191 = ORIENTED_EDGE('',*,*,#192,.T.);
#192 = EDGE_CURVE('',#185,#193,#195,.T.);
#193 = VERTEX_POINT('',#194);
#194 = CARTESIAN_POINT('',(-9.514718625761,-88.5,48.));
#195 = LINE('',#196,#197);
#196 = CARTESIAN_POINT('',(-18.,-88.5,39.514718625761));
#197 = VECTOR('',#198,1.);
#198 = DIRECTION('',(0.707106781187,1.570092458684E-16,0.707106781187));
#199 = ORIENTED_EDGE('',*,*,#200,.F.);
#200 = EDGE_CURVE('',#201,#193,#203,.T.);
#201 = VERTEX_POINT('',#202);
#202 = CARTESIAN_POINT('',(8.948339741504,-88.5,48.));
#203 = LINE('',#204,#205);
#204 = CARTESIAN_POINT('',(40.,-88.5,48.));
#205 = VECTOR('',#206,1.);
#206 = DIRECTION('',(-1.,-0.,-0.));
#207 = ORIENTED_EDGE('',*,*,#208,.F.);
#208 = EDGE_CURVE('',#112,#201,#209,.T.);
#209 = LINE('',#210,#211);
#210 = CARTESIAN_POINT('',(18.,-88.5,38.948339741504));
#211 = VECTOR('',#212,1.);
#212 = DIRECTION('',(-0.707106781187,1.570092458684E-16,0.707106781187)
  );
#213 = ORIENTED_EDGE('',*,*,#111,.T.);
#214 = FACE_BOUND('',#215,.F.);
#215 = EDGE_LOOP('',(#216));
#216 = ORIENTED_EDGE('',*,*,#217,.T.);
#217 = EDGE_CURVE('',#218,#218,#220,.T.);
#218 = VERTEX_POINT('',#219);
#219 = CARTESIAN_POINT('',(15.,-88.5,30.));
#220 = CIRCLE('',#221,15.);
#221 = AXIS2_PLACEMENT_3D('',#222,#223,#224);
#222 = CARTESIAN_POINT('',(8.1E-15,-88.5,30.));
#223 = DIRECTION('',(0.,-1.,2.22044604925E-16));
#224 = DIRECTION('',(1.,0.,0.));
#225 = PLANE('',#226);
#226 = AXIS2_PLACEMENT_3D('',#227,#228,#229);
#227 = CARTESIAN_POINT('',(-40.,-88.5,0.));
#228 = DIRECTION('',(0.,1.,0.));
#229 = DIRECTION('',(1.,0.,0.));
#230 = ADVANCED_FACE('',(#231),#333,.T.);
#231 = FACE_BOUND('',#232,.T.);
#232 = EDGE_LOOP('',(#233,#243,#251,#260,#268,#276,#285,#293,#301,#308,
    #309,#315,#316,#317,#318,#326));
#233 = ORIENTED_EDGE('',*,*,#234,.F.);
#234 = EDGE_CURVE('',#235,#237,#239,.T.);
#235 = VERTEX_POINT('',#236);
#236 = CARTESIAN_POINT('',(-18.,-43.5,12.));
#237 = VERTEX_POINT('',#238);
#238 = CARTESIAN_POINT('',(-16.01940755337,-43.5,12.));
#239 = LINE('',#240,#241);
#240 = CARTESIAN_POINT('',(-18.,-43.5,12.));
#241 = VECTOR('',#242,1.);
#242 = DIRECTION('',(1.,0.,0.));
#243 = ORIENTED_EDGE('',*,*,#244,.F.);
#244 = EDGE_CURVE('',#245,#235,#247,.T.);
#245 = VERTEX_POINT('',#246);
#246 = CARTESIAN_POINT('',(-18.,-18.5,12.));
#247 = LINE('',#248,#249);
#248 = CARTESIAN_POINT('',(-18.,-53.5,12.));
#249 = VECTOR('',#250,1.);
#250 = DIRECTION('',(-0.,-1.,-0.));
#251 = ORIENTED_EDGE('',*,*,#252,.F.);
#252 = EDGE_CURVE('',#253,#245,#255,.T.);
#253 = VERTEX_POINT('',#254);
#254 = CARTESIAN_POINT('',(-40.,15.967375879228,12.));
#255 = CIRCLE('',#256,38.);
#256 = AXIS2_PLACEMENT_3D('',#257,#258,#259);
#257 = CARTESIAN_POINT('',(-2.,15.967375879228,12.));
#258 = DIRECTION('',(0.,0.,1.));
#259 = DIRECTION('',(1.,0.,0.));
#260 = ORIENTED_EDGE('',*,*,#261,.T.);
#261 = EDGE_CURVE('',#253,#262,#264,.T.);
#262 = VERTEX_POINT('',#263);
#263 = CARTESIAN_POINT('',(-40.,19.925396956028,12.));
#264 = LINE('',#265,#266);
#265 = CARTESIAN_POINT('',(-40.,0.,12.));
#266 = VECTOR('',#267,1.);
#267 = DIRECTION('',(0.,1.,0.));
#268 = ORIENTED_EDGE('',*,*,#269,.F.);
#269 = EDGE_CURVE('',#270,#262,#272,.T.);
#270 = VERTEX_POINT('',#271);
#271 = CARTESIAN_POINT('',(-15.82643935439,19.925396956028,12.));
#272 = LINE('',#273,#274);
#273 = CARTESIAN_POINT('',(40.,19.925396956028,12.));
#274 = VECTOR('',#275,1.);
#275 = DIRECTION('',(-1.,-0.,-0.));
#276 = ORIENTED_EDGE('',*,*,#277,.T.);
#277 = EDGE_CURVE('',#270,#278,#280,.T.);
#278 = VERTEX_POINT('',#279);
#279 = CARTESIAN_POINT('',(15.826439354394,19.925396956028,12.));
#280 = CIRCLE('',#281,18.);
#281 = AXIS2_PLACEMENT_3D('',#282,#283,#284);
#282 = CARTESIAN_POINT('',(-1.9E-15,28.5,12.));
#283 = DIRECTION('',(0.,0.,1.));
#284 = DIRECTION('',(1.,0.,0.));
#285 = ORIENTED_EDGE('',*,*,#286,.F.);
#286 = EDGE_CURVE('',#287,#278,#289,.T.);
#287 = VERTEX_POINT('',#288);
#288 = CARTESIAN_POINT('',(40.,19.925396956028,12.));
#289 = LINE('',#290,#291);
#290 = CARTESIAN_POINT('',(40.,19.925396956028,12.));
#291 = VECTOR('',#292,1.);
#292 = DIRECTION('',(-1.,-0.,-0.));
#293 = ORIENTED_EDGE('',*,*,#294,.F.);
#294 = EDGE_CURVE('',#295,#287,#297,.T.);
#295 = VERTEX_POINT('',#296);
#296 = CARTESIAN_POINT('',(40.,15.967375879228,12.));
#297 = LINE('',#298,#299);
#298 = CARTESIAN_POINT('',(40.,-88.5,12.));
#299 = VECTOR('',#300,1.);
#300 = DIRECTION('',(0.,1.,0.));
#301 = ORIENTED_EDGE('',*,*,#302,.F.);
#302 = EDGE_CURVE('',#80,#295,#303,.T.);
#303 = CIRCLE('',#304,38.);
#304 = AXIS2_PLACEMENT_3D('',#305,#306,#307);
#305 = CARTESIAN_POINT('',(2.,15.967375879228,12.));
#306 = DIRECTION('',(0.,0.,1.));
#307 = DIRECTION('',(1.,0.,0.));
#308 = ORIENTED_EDGE('',*,*,#87,.T.);
#309 = ORIENTED_EDGE('',*,*,#310,.T.);
#310 = EDGE_CURVE('',#88,#144,#311,.T.);
#311 = LINE('',#312,#313);
#312 = CARTESIAN_POINT('',(18.,-43.5,12.));
#313 = VECTOR('',#314,1.);
#314 = DIRECTION('',(-1.,0.,0.));
#315 = ORIENTED_EDGE('',*,*,#151,.F.);
#316 = ORIENTED_EDGE('',*,*,#39,.F.);
#317 = ORIENTED_EDGE('',*,*,#168,.T.);
#318 = ORIENTED_EDGE('',*,*,#319,.T.);
#319 = EDGE_CURVE('',#169,#320,#322,.T.);
#320 = VERTEX_POINT('',#321);
#321 = CARTESIAN_POINT('',(-8.948339741504,-48.5,12.));
#322 = LINE('',#323,#324);
#323 = CARTESIAN_POINT('',(-8.948339741504,-88.5,12.));
#324 = VECTOR('',#325,1.);
#325 = DIRECTION('',(0.,1.,-2.22044604925E-16));
#326 = ORIENTED_EDGE('',*,*,#327,.T.);
#327 = EDGE_CURVE('',#320,#237,#328,.T.);
#328 = ELLIPSE('',#329,7.071067811865,5.);
#329 = AXIS2_PLACEMENT_3D('',#330,#331,#332);
#330 = CARTESIAN_POINT('',(-16.01940755337,-48.5,12.));
#331 = DIRECTION('',(-0.,0.,1.));
#332 = DIRECTION('',(1.,-2.22044604925E-16,0.));
#333 = PLANE('',#334);
#334 = AXIS2_PLACEMENT_3D('',#335,#336,#337);
#335 = CARTESIAN_POINT('',(40.,-88.5,12.));
#336 = DIRECTION('',(0.,0.,-1.));
#337 = DIRECTION('',(0.,1.,0.));
#338 = ADVANCED_FACE('',(#339),#356,.F.);
#339 = FACE_BOUND('',#340,.F.);
#340 = EDGE_LOOP('',(#341,#342,#350));
#341 = ORIENTED_EDGE('',*,*,#61,.T.);
#342 = ORIENTED_EDGE('',*,*,#343,.T.);
#343 = EDGE_CURVE('',#64,#344,#346,.T.);
#344 = VERTEX_POINT('',#345);
#345 = CARTESIAN_POINT('',(16.01940755337,-43.5,48.));
#346 = LINE('',#347,#348);
#347 = CARTESIAN_POINT('',(21.535533905933,-43.5,42.483873647437));
#348 = VECTOR('',#349,1.);
#349 = DIRECTION('',(-0.707106781187,1.570092458684E-16,0.707106781187)
  );
#350 = ORIENTED_EDGE('',*,*,#351,.F.);
#351 = EDGE_CURVE('',#62,#344,#352,.T.);
#352 = LINE('',#353,#354);
#353 = CARTESIAN_POINT('',(18.,-43.5,48.));
#354 = VECTOR('',#355,1.);
#355 = DIRECTION('',(-1.,0.,0.));
#356 = PLANE('',#357);
#357 = AXIS2_PLACEMENT_3D('',#358,#359,#360);
#358 = CARTESIAN_POINT('',(0.187516352834,-43.5,29.812483647166));
#359 = DIRECTION('',(0.,1.,-4.42037604979E-16));
#360 = DIRECTION('',(0.,4.42037604979E-16,1.));
#361 = ADVANCED_FACE('',(#362),#381,.F.);
#362 = FACE_BOUND('',#363,.T.);
#363 = EDGE_LOOP('',(#364,#365,#366,#375));
#364 = ORIENTED_EDGE('',*,*,#127,.T.);
#365 = ORIENTED_EDGE('',*,*,#343,.T.);
#366 = ORIENTED_EDGE('',*,*,#367,.F.);
#367 = EDGE_CURVE('',#368,#344,#370,.T.);
#368 = VERTEX_POINT('',#369);
#369 = CARTESIAN_POINT('',(8.948339741504,-48.5,48.));
#370 = ELLIPSE('',#371,7.071067811865,5.);
#371 = AXIS2_PLACEMENT_3D('',#372,#373,#374);
#372 = CARTESIAN_POINT('',(16.01940755337,-48.5,48.));
#373 = DIRECTION('',(0.,0.,-1.));
#374 = DIRECTION('',(-1.,2.22044604925E-16,0.));
#375 = ORIENTED_EDGE('',*,*,#376,.F.);
#376 = EDGE_CURVE('',#120,#368,#377,.T.);
#377 = LINE('',#378,#379);
#378 = CARTESIAN_POINT('',(18.,-48.5,38.948339741504));
#379 = VECTOR('',#380,1.);
#380 = DIRECTION('',(-0.707106781187,1.570092458684E-16,0.707106781187)
  );
#381 = CYLINDRICAL_SURFACE('',#382,5.);
#382 = AXIS2_PLACEMENT_3D('',#383,#384,#385);
#383 = CARTESIAN_POINT('',(21.535533905933,-48.5,42.483873647437));
#384 = DIRECTION('',(-0.707106781187,1.570092458684E-16,0.707106781187)
  );
#385 = DIRECTION('',(-0.707106781187,-1.570092458684E-16,-0.707106781187
    ));
#386 = ADVANCED_FACE('',(#387),#489,.F.);
#387 = FACE_BOUND('',#388,.F.);
#388 = EDGE_LOOP('',(#389,#399,#407,#416,#424,#432,#441,#449,#457,#464,
    #465,#466,#467,#473,#474,#482));
#389 = ORIENTED_EDGE('',*,*,#390,.F.);
#390 = EDGE_CURVE('',#391,#393,#395,.T.);
#391 = VERTEX_POINT('',#392);
#392 = CARTESIAN_POINT('',(-18.,-43.5,48.));
#393 = VERTEX_POINT('',#394);
#394 = CARTESIAN_POINT('',(-16.58578643762,-43.5,48.));
#395 = LINE('',#396,#397);
#396 = CARTESIAN_POINT('',(-18.,-43.5,48.));
#397 = VECTOR('',#398,1.);
#398 = DIRECTION('',(1.,0.,0.));
#399 = ORIENTED_EDGE('',*,*,#400,.F.);
#400 = EDGE_CURVE('',#401,#391,#403,.T.);
#401 = VERTEX_POINT('',#402);
#402 = CARTESIAN_POINT('',(-18.,-18.5,48.));
#403 = LINE('',#404,#405);
#404 = CARTESIAN_POINT('',(-18.,-53.5,48.));
#405 = VECTOR('',#406,1.);
#406 = DIRECTION('',(-0.,-1.,-0.));
#407 = ORIENTED_EDGE('',*,*,#408,.F.);
#408 = EDGE_CURVE('',#409,#401,#411,.T.);
#409 = VERTEX_POINT('',#410);
#410 = CARTESIAN_POINT('',(-40.,15.967375879228,48.));
#411 = CIRCLE('',#412,38.);
#412 = AXIS2_PLACEMENT_3D('',#413,#414,#415);
#413 = CARTESIAN_POINT('',(-2.,15.967375879228,48.));
#414 = DIRECTION('',(0.,0.,1.));
#415 = DIRECTION('',(1.,0.,0.));
#416 = ORIENTED_EDGE('',*,*,#417,.T.);
#417 = EDGE_CURVE('',#409,#418,#420,.T.);
#418 = VERTEX_POINT('',#419);
#419 = CARTESIAN_POINT('',(-40.,19.925396956028,48.));
#420 = LINE('',#421,#422);
#421 = CARTESIAN_POINT('',(-40.,0.,48.));
#422 = VECTOR('',#423,1.);
#423 = DIRECTION('',(0.,1.,0.));
#424 = ORIENTED_EDGE('',*,*,#425,.F.);
#425 = EDGE_CURVE('',#426,#418,#428,.T.);
#426 = VERTEX_POINT('',#427);
#427 = CARTESIAN_POINT('',(-15.82643935439,19.925396956028,48.));
#428 = LINE('',#429,#430);
#429 = CARTESIAN_POINT('',(40.,19.925396956028,48.));
#430 = VECTOR('',#431,1.);
#431 = DIRECTION('',(-1.,-0.,-0.));
#432 = ORIENTED_EDGE('',*,*,#433,.T.);
#433 = EDGE_CURVE('',#426,#434,#436,.T.);
#434 = VERTEX_POINT('',#435);
#435 = CARTESIAN_POINT('',(15.826439354394,19.925396956028,48.));
#436 = CIRCLE('',#437,18.);
#437 = AXIS2_PLACEMENT_3D('',#438,#439,#440);
#438 = CARTESIAN_POINT('',(-1.9E-15,28.5,48.));
#439 = DIRECTION('',(0.,0.,1.));
#440 = DIRECTION('',(1.,0.,0.));
#441 = ORIENTED_EDGE('',*,*,#442,.F.);
#442 = EDGE_CURVE('',#443,#434,#445,.T.);
#443 = VERTEX_POINT('',#444);
#444 = CARTESIAN_POINT('',(40.,19.925396956028,48.));
#445 = LINE('',#446,#447);
#446 = CARTESIAN_POINT('',(40.,19.925396956028,48.));
#447 = VECTOR('',#448,1.);
#448 = DIRECTION('',(-1.,-0.,-0.));
#449 = ORIENTED_EDGE('',*,*,#450,.F.);
#450 = EDGE_CURVE('',#451,#443,#453,.T.);
#451 = VERTEX_POINT('',#452);
#452 = CARTESIAN_POINT('',(40.,15.967375879228,48.));
#453 = LINE('',#454,#455);
#454 = CARTESIAN_POINT('',(40.,-88.5,48.));
#455 = VECTOR('',#456,1.);
#456 = DIRECTION('',(0.,1.,0.));
#457 = ORIENTED_EDGE('',*,*,#458,.F.);
#458 = EDGE_CURVE('',#72,#451,#459,.T.);
#459 = CIRCLE('',#460,38.);
#460 = AXIS2_PLACEMENT_3D('',#461,#462,#463);
#461 = CARTESIAN_POINT('',(2.,15.967375879228,48.));
#462 = DIRECTION('',(0.,0.,1.));
#463 = DIRECTION('',(1.,0.,0.));
#464 = ORIENTED_EDGE('',*,*,#71,.T.);
#465 = ORIENTED_EDGE('',*,*,#351,.T.);
#466 = ORIENTED_EDGE('',*,*,#367,.F.);
#467 = ORIENTED_EDGE('',*,*,#468,.F.);
#468 = EDGE_CURVE('',#201,#368,#469,.T.);
#469 = LINE('',#470,#471);
#470 = CARTESIAN_POINT('',(8.948339741504,-88.5,48.));
#471 = VECTOR('',#472,1.);
#472 = DIRECTION('',(0.,1.,-2.22044604925E-16));
#473 = ORIENTED_EDGE('',*,*,#200,.T.);
#474 = ORIENTED_EDGE('',*,*,#475,.T.);
#475 = EDGE_CURVE('',#193,#476,#478,.T.);
#476 = VERTEX_POINT('',#477);
#477 = CARTESIAN_POINT('',(-9.514718625761,-48.5,48.));
#478 = LINE('',#479,#480);
#479 = CARTESIAN_POINT('',(-9.514718625761,-88.5,48.));
#480 = VECTOR('',#481,1.);
#481 = DIRECTION('',(0.,1.,-2.22044604925E-16));
#482 = ORIENTED_EDGE('',*,*,#483,.T.);
#483 = EDGE_CURVE('',#476,#393,#484,.T.);
#484 = ELLIPSE('',#485,7.071067811865,5.);
#485 = AXIS2_PLACEMENT_3D('',#486,#487,#488);
#486 = CARTESIAN_POINT('',(-16.58578643762,-48.5,48.));
#487 = DIRECTION('',(0.,-0.,1.));
#488 = DIRECTION('',(1.,2.22044604925E-16,0.));
#489 = PLANE('',#490);
#490 = AXIS2_PLACEMENT_3D('',#491,#492,#493);
#491 = CARTESIAN_POINT('',(40.,-88.5,48.));
#492 = DIRECTION('',(0.,0.,-1.));
#493 = DIRECTION('',(0.,1.,0.));
#494 = ADVANCED_FACE('',(#495),#501,.T.);
#495 = FACE_BOUND('',#496,.T.);
#496 = EDGE_LOOP('',(#497,#498,#499,#500));
#497 = ORIENTED_EDGE('',*,*,#119,.T.);
#498 = ORIENTED_EDGE('',*,*,#376,.T.);
#499 = ORIENTED_EDGE('',*,*,#468,.F.);
#500 = ORIENTED_EDGE('',*,*,#208,.F.);
#501 = PLANE('',#502);
#502 = AXIS2_PLACEMENT_3D('',#503,#504,#505);
#503 = CARTESIAN_POINT('',(18.,-88.5,38.948339741504));
#504 = DIRECTION('',(0.707106781187,1.570092458684E-16,0.707106781187));
#505 = DIRECTION('',(-0.707106781187,1.570092458684E-16,0.707106781187)
  );
#506 = ADVANCED_FACE('',(#507),#518,.T.);
#507 = FACE_BOUND('',#508,.T.);
#508 = EDGE_LOOP('',(#509,#510,#511,#512));
#509 = ORIENTED_EDGE('',*,*,#458,.F.);
#510 = ORIENTED_EDGE('',*,*,#79,.T.);
#511 = ORIENTED_EDGE('',*,*,#302,.T.);
#512 = ORIENTED_EDGE('',*,*,#513,.F.);
#513 = EDGE_CURVE('',#451,#295,#514,.T.);
#514 = LINE('',#515,#516);
#515 = CARTESIAN_POINT('',(40.,15.967375879228,60.));
#516 = VECTOR('',#517,1.);
#517 = DIRECTION('',(-0.,-0.,-1.));
#518 = CYLINDRICAL_SURFACE('',#519,38.);
#519 = AXIS2_PLACEMENT_3D('',#520,#521,#522);
#520 = CARTESIAN_POINT('',(2.,15.967375879228,60.));
#521 = DIRECTION('',(0.,0.,1.));
#522 = DIRECTION('',(1.,0.,0.));
#523 = ADVANCED_FACE('',(#524),#529,.F.);
#524 = FACE_BOUND('',#525,.F.);
#525 = EDGE_LOOP('',(#526,#527,#528));
#526 = ORIENTED_EDGE('',*,*,#95,.F.);
#527 = ORIENTED_EDGE('',*,*,#310,.T.);
#528 = ORIENTED_EDGE('',*,*,#143,.F.);
#529 = PLANE('',#530);
#530 = AXIS2_PLACEMENT_3D('',#531,#532,#533);
#531 = CARTESIAN_POINT('',(0.187516352834,-43.5,29.812483647166));
#532 = DIRECTION('',(0.,1.,-4.42037604979E-16));
#533 = DIRECTION('',(0.,4.42037604979E-16,1.));
#534 = ADVANCED_FACE('',(#535),#553,.F.);
#535 = FACE_BOUND('',#536,.F.);
#536 = EDGE_LOOP('',(#537,#545,#551,#552));
#537 = ORIENTED_EDGE('',*,*,#538,.T.);
#538 = EDGE_CURVE('',#185,#539,#541,.T.);
#539 = VERTEX_POINT('',#540);
#540 = CARTESIAN_POINT('',(-18.,-48.5,39.514718625761));
#541 = LINE('',#542,#543);
#542 = CARTESIAN_POINT('',(-18.,-88.5,39.514718625761));
#543 = VECTOR('',#544,1.);
#544 = DIRECTION('',(0.,1.,-2.22044604925E-16));
#545 = ORIENTED_EDGE('',*,*,#546,.T.);
#546 = EDGE_CURVE('',#539,#476,#547,.T.);
#547 = LINE('',#548,#549);
#548 = CARTESIAN_POINT('',(-18.,-48.5,39.514718625761));
#549 = VECTOR('',#550,1.);
#550 = DIRECTION('',(0.707106781187,1.570092458684E-16,0.707106781187));
#551 = ORIENTED_EDGE('',*,*,#475,.F.);
#552 = ORIENTED_EDGE('',*,*,#192,.F.);
#553 = PLANE('',#554);
#554 = AXIS2_PLACEMENT_3D('',#555,#556,#557);
#555 = CARTESIAN_POINT('',(-18.,-88.5,39.514718625761));
#556 = DIRECTION('',(0.707106781187,-1.570092458684E-16,-0.707106781187)
  );
#557 = DIRECTION('',(0.707106781187,1.570092458684E-16,0.707106781187));
#558 = ADVANCED_FACE('',(#559),#609,.T.);
#559 = FACE_BOUND('',#560,.T.);
#560 = EDGE_LOOP('',(#561,#569,#570,#576,#577,#585,#594,#600,#601,#602)
  );
#561 = ORIENTED_EDGE('',*,*,#562,.F.);
#562 = EDGE_CURVE('',#391,#563,#565,.T.);
#563 = VERTEX_POINT('',#564);
#564 = CARTESIAN_POINT('',(-18.,-43.5,46.585786437627));
#565 = LINE('',#566,#567);
#566 = CARTESIAN_POINT('',(-18.,-43.5,48.));
#567 = VECTOR('',#568,1.);
#568 = DIRECTION('',(0.,-2.22044604925E-16,-1.));
#569 = ORIENTED_EDGE('',*,*,#400,.F.);
#570 = ORIENTED_EDGE('',*,*,#571,.T.);
#571 = EDGE_CURVE('',#401,#245,#572,.T.);
#572 = LINE('',#573,#574);
#573 = CARTESIAN_POINT('',(-18.,-18.5,60.));
#574 = VECTOR('',#575,1.);
#575 = DIRECTION('',(-0.,-0.,-1.));
#576 = ORIENTED_EDGE('',*,*,#244,.T.);
#577 = ORIENTED_EDGE('',*,*,#578,.T.);
#578 = EDGE_CURVE('',#235,#579,#581,.T.);
#579 = VERTEX_POINT('',#580);
#580 = CARTESIAN_POINT('',(-18.,-43.5,13.98059244663));
#581 = LINE('',#582,#583);
#582 = CARTESIAN_POINT('',(-18.,-43.5,12.));
#583 = VECTOR('',#584,1.);
#584 = DIRECTION('',(0.,2.22044604925E-16,1.));
#585 = ORIENTED_EDGE('',*,*,#586,.F.);
#586 = EDGE_CURVE('',#587,#579,#589,.T.);
#587 = VERTEX_POINT('',#588);
#588 = CARTESIAN_POINT('',(-18.,-48.5,21.051660258496));
#589 = ELLIPSE('',#590,7.071067811865,5.);
#590 = AXIS2_PLACEMENT_3D('',#591,#592,#593);
#591 = CARTESIAN_POINT('',(-18.,-48.5,13.98059244663));
#592 = DIRECTION('',(-1.,0.,0.));
#593 = DIRECTION('',(-0.,-2.22044604925E-16,-1.));
#594 = ORIENTED_EDGE('',*,*,#595,.F.);
#595 = EDGE_CURVE('',#177,#587,#596,.T.);
#596 = LINE('',#597,#598);
#597 = CARTESIAN_POINT('',(-18.,-88.5,21.051660258496));
#598 = VECTOR('',#599,1.);
#599 = DIRECTION('',(0.,1.,-2.22044604925E-16));
#600 = ORIENTED_EDGE('',*,*,#184,.F.);
#601 = ORIENTED_EDGE('',*,*,#538,.T.);
#602 = ORIENTED_EDGE('',*,*,#603,.T.);
#603 = EDGE_CURVE('',#539,#563,#604,.T.);
#604 = ELLIPSE('',#605,7.071067811865,5.);
#605 = AXIS2_PLACEMENT_3D('',#606,#607,#608);
#606 = CARTESIAN_POINT('',(-18.,-48.5,46.585786437627));
#607 = DIRECTION('',(1.,0.,-0.));
#608 = DIRECTION('',(0.,2.22044604925E-16,1.));
#609 = PLANE('',#610);
#610 = AXIS2_PLACEMENT_3D('',#611,#612,#613);
#611 = CARTESIAN_POINT('',(-18.,-18.5,60.));
#612 = DIRECTION('',(-1.,0.,0.));
#613 = DIRECTION('',(0.,-1.,0.));
#614 = ADVANCED_FACE('',(#615),#626,.T.);
#615 = FACE_BOUND('',#616,.T.);
#616 = EDGE_LOOP('',(#617,#618,#624,#625));
#617 = ORIENTED_EDGE('',*,*,#595,.T.);
#618 = ORIENTED_EDGE('',*,*,#619,.T.);
#619 = EDGE_CURVE('',#587,#320,#620,.T.);
#620 = LINE('',#621,#622);
#621 = CARTESIAN_POINT('',(-18.,-48.5,21.051660258496));
#622 = VECTOR('',#623,1.);
#623 = DIRECTION('',(0.707106781187,-1.570092458684E-16,-0.707106781187)
  );
#624 = ORIENTED_EDGE('',*,*,#319,.F.);
#625 = ORIENTED_EDGE('',*,*,#176,.F.);
#626 = PLANE('',#627);
#627 = AXIS2_PLACEMENT_3D('',#628,#629,#630);
#628 = CARTESIAN_POINT('',(-18.,-88.5,21.051660258496));
#629 = DIRECTION('',(-0.707106781187,-1.570092458684E-16,-0.707106781187
    ));
#630 = DIRECTION('',(0.707106781187,-1.570092458684E-16,-0.707106781187)
  );
#631 = ADVANCED_FACE('',(#632),#651,.T.);
#632 = FACE_BOUND('',#633,.F.);
#633 = EDGE_LOOP('',(#634,#642,#649,#650));
#634 = ORIENTED_EDGE('',*,*,#635,.T.);
#635 = EDGE_CURVE('',#218,#636,#638,.T.);
#636 = VERTEX_POINT('',#637);
#637 = CARTESIAN_POINT('',(15.,-138.5,30.));
#638 = LINE('',#639,#640);
#639 = CARTESIAN_POINT('',(15.,-88.5,30.));
#640 = VECTOR('',#641,1.);
#641 = DIRECTION('',(0.,-1.,2.22044604925E-16));
#642 = ORIENTED_EDGE('',*,*,#643,.T.);
#643 = EDGE_CURVE('',#636,#636,#644,.T.);
#644 = CIRCLE('',#645,15.);
#645 = AXIS2_PLACEMENT_3D('',#646,#647,#648);
#646 = CARTESIAN_POINT('',(8.1E-15,-138.5,30.));
#647 = DIRECTION('',(0.,-1.,2.22044604925E-16));
#648 = DIRECTION('',(1.,0.,0.));
#649 = ORIENTED_EDGE('',*,*,#635,.F.);
#650 = ORIENTED_EDGE('',*,*,#217,.F.);
#651 = CYLINDRICAL_SURFACE('',#652,15.);
#652 = AXIS2_PLACEMENT_3D('',#653,#654,#655);
#653 = CARTESIAN_POINT('',(8.1E-15,-88.5,30.));
#654 = DIRECTION('',(0.,1.,-2.22044604925E-16));
#655 = DIRECTION('',(1.,0.,0.));
#656 = ADVANCED_FACE('',(#657),#667,.F.);
#657 = FACE_BOUND('',#658,.F.);
#658 = EDGE_LOOP('',(#659,#660,#666));
#659 = ORIENTED_EDGE('',*,*,#578,.T.);
#660 = ORIENTED_EDGE('',*,*,#661,.T.);
#661 = EDGE_CURVE('',#579,#237,#662,.T.);
#662 = LINE('',#663,#664);
#663 = CARTESIAN_POINT('',(-21.53553390593,-43.5,17.516126352563));
#664 = VECTOR('',#665,1.);
#665 = DIRECTION('',(0.707106781187,-1.570092458684E-16,-0.707106781187)
  );
#666 = ORIENTED_EDGE('',*,*,#234,.F.);
#667 = PLANE('',#668);
#668 = AXIS2_PLACEMENT_3D('',#669,#670,#671);
#669 = CARTESIAN_POINT('',(0.187516352834,-43.5,29.812483647166));
#670 = DIRECTION('',(0.,1.,-4.42037604979E-16));
#671 = DIRECTION('',(0.,4.42037604979E-16,1.));
#672 = ADVANCED_FACE('',(#673),#679,.F.);
#673 = FACE_BOUND('',#674,.T.);
#674 = EDGE_LOOP('',(#675,#676,#677,#678));
#675 = ORIENTED_EDGE('',*,*,#586,.T.);
#676 = ORIENTED_EDGE('',*,*,#661,.T.);
#677 = ORIENTED_EDGE('',*,*,#327,.F.);
#678 = ORIENTED_EDGE('',*,*,#619,.F.);
#679 = CYLINDRICAL_SURFACE('',#680,5.);
#680 = AXIS2_PLACEMENT_3D('',#681,#682,#683);
#681 = CARTESIAN_POINT('',(-21.53553390593,-48.5,17.516126352563));
#682 = DIRECTION('',(0.707106781187,-1.570092458684E-16,-0.707106781187)
  );
#683 = DIRECTION('',(0.707106781187,1.570092458684E-16,0.707106781187));
#684 = ADVANCED_FACE('',(#685),#696,.T.);
#685 = FACE_BOUND('',#686,.T.);
#686 = EDGE_LOOP('',(#687,#688,#694,#695));
#687 = ORIENTED_EDGE('',*,*,#408,.F.);
#688 = ORIENTED_EDGE('',*,*,#689,.T.);
#689 = EDGE_CURVE('',#409,#253,#690,.T.);
#690 = LINE('',#691,#692);
#691 = CARTESIAN_POINT('',(-40.,15.967375879228,60.));
#692 = VECTOR('',#693,1.);
#693 = DIRECTION('',(-0.,-0.,-1.));
#694 = ORIENTED_EDGE('',*,*,#252,.T.);
#695 = ORIENTED_EDGE('',*,*,#571,.F.);
#696 = CYLINDRICAL_SURFACE('',#697,38.);
#697 = AXIS2_PLACEMENT_3D('',#698,#699,#700);
#698 = CARTESIAN_POINT('',(-2.,15.967375879228,60.));
#699 = DIRECTION('',(0.,0.,1.));
#700 = DIRECTION('',(1.,0.,0.));
#701 = ADVANCED_FACE('',(#702,#759),#770,.F.);
#702 = FACE_BOUND('',#703,.F.);
#703 = EDGE_LOOP('',(#704,#715,#724,#733,#742,#749,#750,#751,#752));
#704 = ORIENTED_EDGE('',*,*,#705,.T.);
#705 = EDGE_CURVE('',#706,#708,#710,.T.);
#706 = VERTEX_POINT('',#707);
#707 = CARTESIAN_POINT('',(-40.,41.481792774718,5.294117647059));
#708 = VERTEX_POINT('',#709);
#709 = CARTESIAN_POINT('',(-40.,58.5,0.));
#710 = CIRCLE('',#711,30.);
#711 = AXIS2_PLACEMENT_3D('',#712,#713,#714);
#712 = CARTESIAN_POINT('',(-40.,58.5,30.));
#713 = DIRECTION('',(1.,0.,0.));
#714 = DIRECTION('',(0.,1.,0.));
#715 = ORIENTED_EDGE('',*,*,#716,.T.);
#716 = EDGE_CURVE('',#708,#717,#719,.T.);
#717 = VERTEX_POINT('',#718);
#718 = CARTESIAN_POINT('',(-40.,88.5,30.));
#719 = CIRCLE('',#720,30.);
#720 = AXIS2_PLACEMENT_3D('',#721,#722,#723);
#721 = CARTESIAN_POINT('',(-40.,58.5,30.));
#722 = DIRECTION('',(1.,0.,0.));
#723 = DIRECTION('',(0.,1.,0.));
#724 = ORIENTED_EDGE('',*,*,#725,.T.);
#725 = EDGE_CURVE('',#717,#726,#728,.T.);
#726 = VERTEX_POINT('',#727);
#727 = CARTESIAN_POINT('',(-40.,58.5,60.));
#728 = CIRCLE('',#729,30.);
#729 = AXIS2_PLACEMENT_3D('',#730,#731,#732);
#730 = CARTESIAN_POINT('',(-40.,58.5,30.));
#731 = DIRECTION('',(1.,0.,0.));
#732 = DIRECTION('',(0.,1.,0.));
#733 = ORIENTED_EDGE('',*,*,#734,.T.);
#734 = EDGE_CURVE('',#726,#735,#737,.T.);
#735 = VERTEX_POINT('',#736);
#736 = CARTESIAN_POINT('',(-40.,41.481792774718,54.705882352941));
#737 = CIRCLE('',#738,30.);
#738 = AXIS2_PLACEMENT_3D('',#739,#740,#741);
#739 = CARTESIAN_POINT('',(-40.,58.5,30.));
#740 = DIRECTION('',(1.,0.,0.));
#741 = DIRECTION('',(0.,1.,0.));
#742 = ORIENTED_EDGE('',*,*,#743,.F.);
#743 = EDGE_CURVE('',#418,#735,#744,.T.);
#744 = CIRCLE('',#745,38.);
#745 = AXIS2_PLACEMENT_3D('',#746,#747,#748);
#746 = CARTESIAN_POINT('',(-40.,19.925396956028,86.));
#747 = DIRECTION('',(1.,0.,0.));
#748 = DIRECTION('',(0.,1.,0.));
#749 = ORIENTED_EDGE('',*,*,#417,.F.);
#750 = ORIENTED_EDGE('',*,*,#689,.T.);
#751 = ORIENTED_EDGE('',*,*,#261,.T.);
#752 = ORIENTED_EDGE('',*,*,#753,.F.);
#753 = EDGE_CURVE('',#706,#262,#754,.T.);
#754 = CIRCLE('',#755,38.);
#755 = AXIS2_PLACEMENT_3D('',#756,#757,#758);
#756 = CARTESIAN_POINT('',(-40.,19.925396956028,-26.));
#757 = DIRECTION('',(1.,0.,0.));
#758 = DIRECTION('',(0.,1.,0.));
#759 = FACE_BOUND('',#760,.F.);
#760 = EDGE_LOOP('',(#761));
#761 = ORIENTED_EDGE('',*,*,#762,.F.);
#762 = EDGE_CURVE('',#763,#763,#765,.T.);
#763 = VERTEX_POINT('',#764);
#764 = CARTESIAN_POINT('',(-40.,73.5,30.));
#765 = CIRCLE('',#766,15.);
#766 = AXIS2_PLACEMENT_3D('',#767,#768,#769);
#767 = CARTESIAN_POINT('',(-40.,58.5,30.));
#768 = DIRECTION('',(1.,0.,0.));
#769 = DIRECTION('',(0.,1.,0.));
#770 = PLANE('',#771);
#771 = AXIS2_PLACEMENT_3D('',#772,#773,#774);
#772 = CARTESIAN_POINT('',(-40.,88.5,0.));
#773 = DIRECTION('',(1.,0.,0.));
#774 = DIRECTION('',(0.,-1.,0.));
#775 = ADVANCED_FACE('',(#776),#817,.F.);
#776 = FACE_BOUND('',#777,.F.);
#777 = EDGE_LOOP('',(#778,#789,#795,#796,#797));
#778 = ORIENTED_EDGE('',*,*,#779,.F.);
#779 = EDGE_CURVE('',#780,#782,#784,.T.);
#780 = VERTEX_POINT('',#781);
#781 = CARTESIAN_POINT('',(-18.,41.481792774718,5.294117647059));
#782 = VERTEX_POINT('',#783);
#783 = CARTESIAN_POINT('',(-18.,28.5,11.019943039371));
#784 = CIRCLE('',#785,38.);
#785 = AXIS2_PLACEMENT_3D('',#786,#787,#788);
#786 = CARTESIAN_POINT('',(-18.,19.925396956028,-26.));
#787 = DIRECTION('',(1.,0.,0.));
#788 = DIRECTION('',(0.,1.,0.));
#789 = ORIENTED_EDGE('',*,*,#790,.T.);
#790 = EDGE_CURVE('',#780,#706,#791,.T.);
#791 = LINE('',#792,#793);
#792 = CARTESIAN_POINT('',(40.,41.481792774718,5.294117647059));
#793 = VECTOR('',#794,1.);
#794 = DIRECTION('',(-1.,-0.,-0.));
#795 = ORIENTED_EDGE('',*,*,#753,.T.);
#796 = ORIENTED_EDGE('',*,*,#269,.F.);
#797 = ORIENTED_EDGE('',*,*,#798,.F.);
#798 = EDGE_CURVE('',#782,#270,#799,.T.);
#799 = B_SPLINE_CURVE_WITH_KNOTS('',6,(#800,#801,#802,#803,#804,#805,
    #806,#807,#808,#809,#810,#811,#812,#813,#814,#815,#816),
  .UNSPECIFIED.,.F.,.F.,(7,5,5,7),(0.,0.251770758414,0.732541814697,1.),
  .UNSPECIFIED.);
#800 = CARTESIAN_POINT('',(-18.,28.5,11.019943039371));
#801 = CARTESIAN_POINT('',(-18.,28.124184745358,11.106989813674));
#802 = CARTESIAN_POINT('',(-17.99058414158,27.746302025141,
    11.189691671209));
#803 = CARTESIAN_POINT('',(-17.97155842244,27.367067594483,
    11.267834246855));
#804 = CARTESIAN_POINT('',(-17.94280896132,26.987197998483,
    11.341260784354));
#805 = CARTESIAN_POINT('',(-17.90430286481,26.607409758017,
    11.409870392538));
#806 = CARTESIAN_POINT('',(-17.76402206644,25.504712586372,
    11.595342860279));
#807 = CARTESIAN_POINT('',(-17.63666292079,24.784745862091,
    11.699194172351));
#808 = CARTESIAN_POINT('',(-17.47445084681,24.073043074894,
    11.784995512097));
#809 = CARTESIAN_POINT('',(-17.27876934854,23.374051036483,
    11.853221792601));
#810 = CARTESIAN_POINT('',(-17.05196424388,22.69205342608,
    11.904932176274));
#811 = CARTESIAN_POINT('',(-16.65578491067,21.663326488429,
    11.962023628209));
#812 = CARTESIAN_POINT('',(-16.50549510612,21.30188497124,
    11.977792755875));
#813 = CARTESIAN_POINT('',(-16.34695174201,20.947063411423,
    11.989189813051));
#814 = CARTESIAN_POINT('',(-16.18060350161,20.599180364948,
    11.996495378759));
#815 = CARTESIAN_POINT('',(-16.00692921806,20.258533296775,12.));
#816 = CARTESIAN_POINT('',(-15.82643935439,19.925396956028,12.));
#817 = CYLINDRICAL_SURFACE('',#818,38.);
#818 = AXIS2_PLACEMENT_3D('',#819,#820,#821);
#819 = CARTESIAN_POINT('',(40.,19.925396956028,-26.));
#820 = DIRECTION('',(1.,0.,0.));
#821 = DIRECTION('',(0.,1.,0.));
#822 = ADVANCED_FACE('',(#823),#906,.F.);
#823 = FACE_BOUND('',#824,.F.);
#824 = EDGE_LOOP('',(#825,#847,#853,#854,#855,#877,#885,#905));
#825 = ORIENTED_EDGE('',*,*,#826,.F.);
#826 = EDGE_CURVE('',#827,#426,#829,.T.);
#827 = VERTEX_POINT('',#828);
#828 = CARTESIAN_POINT('',(-18.,28.5,48.980056960629));
#829 = B_SPLINE_CURVE_WITH_KNOTS('',6,(#830,#831,#832,#833,#834,#835,
    #836,#837,#838,#839,#840,#841,#842,#843,#844,#845,#846),
  .UNSPECIFIED.,.F.,.F.,(7,5,5,7),(0.,0.251770758433,0.732541814719,1.),
  .UNSPECIFIED.);
#830 = CARTESIAN_POINT('',(-18.,28.5,48.980056960629));
#831 = CARTESIAN_POINT('',(-18.,28.124184745352,48.893010186325));
#832 = CARTESIAN_POINT('',(-17.99058414158,27.746302025142,
    48.810308328791));
#833 = CARTESIAN_POINT('',(-17.97155842244,27.367067594489,
    48.732165753146));
#834 = CARTESIAN_POINT('',(-17.94280896132,26.987197998485,
    48.658739215646));
#835 = CARTESIAN_POINT('',(-17.90430286481,26.607409758011,
    48.590129607461));
#836 = CARTESIAN_POINT('',(-17.76402206645,25.504712586433,
    48.404657139731));
#837 = CARTESIAN_POINT('',(-17.63666292079,24.784745862076,
    48.300805827644));
#838 = CARTESIAN_POINT('',(-17.4744508468,24.073043074832,
    48.215004487896));
#839 = CARTESIAN_POINT('',(-17.27876934852,23.374051036468,48.1467782074
    ));
#840 = CARTESIAN_POINT('',(-17.0519642439,22.692053426138,
    48.095067823729));
#841 = CARTESIAN_POINT('',(-16.65578491067,21.663326488429,
    48.037976371791));
#842 = CARTESIAN_POINT('',(-16.50549510612,21.30188497124,
    48.022207244125));
#843 = CARTESIAN_POINT('',(-16.34695174201,20.947063411423,
    48.010810186949));
#844 = CARTESIAN_POINT('',(-16.18060350161,20.599180364948,
    48.003504621241));
#845 = CARTESIAN_POINT('',(-16.00692921806,20.258533296775,48.));
#846 = CARTESIAN_POINT('',(-15.82643935439,19.925396956028,48.));
#847 = ORIENTED_EDGE('',*,*,#848,.T.);
#848 = EDGE_CURVE('',#827,#782,#849,.T.);
#849 = LINE('',#850,#851);
#850 = CARTESIAN_POINT('',(-18.,28.5,60.));
#851 = VECTOR('',#852,1.);
#852 = DIRECTION('',(-0.,-0.,-1.));
#853 = ORIENTED_EDGE('',*,*,#798,.T.);
#854 = ORIENTED_EDGE('',*,*,#277,.T.);
#855 = ORIENTED_EDGE('',*,*,#856,.T.);
#856 = EDGE_CURVE('',#278,#857,#859,.T.);
#857 = VERTEX_POINT('',#858);
#858 = CARTESIAN_POINT('',(18.,28.5,11.019943039371));
#859 = B_SPLINE_CURVE_WITH_KNOTS('',6,(#860,#861,#862,#863,#864,#865,
    #866,#867,#868,#869,#870,#871,#872,#873,#874,#875,#876),
  .UNSPECIFIED.,.F.,.F.,(7,5,5,7),(0.,0.267071542378,0.747853706475,1.),
  .UNSPECIFIED.);
#860 = CARTESIAN_POINT('',(15.826439354394,19.925396956028,12.));
#861 = CARTESIAN_POINT('',(16.006668267833,20.258051651974,12.));
#862 = CARTESIAN_POINT('',(16.180101178138,20.598195157931,
    11.996505505284));
#863 = CARTESIAN_POINT('',(16.346229933486,20.945554051888,
    11.98922148464));
#864 = CARTESIAN_POINT('',(16.504577800785,21.299832331055,
    11.977858640497));
#865 = CARTESIAN_POINT('',(16.654697997002,21.660713023904,
    11.96213756898));
#866 = CARTESIAN_POINT('',(17.050854103567,22.68879739611,
    11.905168484786));
#867 = CARTESIAN_POINT('',(17.277785833374,23.370739458647,
    11.85352165511));
#868 = CARTESIAN_POINT('',(17.473600471763,24.0696883427,11.785362117581
    ));
#869 = CARTESIAN_POINT('',(17.635950428614,24.781362301981,11.699629333)
  );
#870 = CARTESIAN_POINT('',(17.763449998292,25.501316302917,
    11.595846607951));
#871 = CARTESIAN_POINT('',(17.904015498489,26.604577617506,
    11.410381917188));
#872 = CARTESIAN_POINT('',(17.942637312388,26.984931720281,
    11.341698776588));
#873 = CARTESIAN_POINT('',(17.971473226069,27.365370686274,
    11.268183867729));
#874 = CARTESIAN_POINT('',(17.990556032374,27.745174770957,11.1899383667
    ));
#875 = CARTESIAN_POINT('',(18.,28.123624201233,11.107119647568));
#876 = CARTESIAN_POINT('',(18.,28.5,11.019943039371));
#877 = ORIENTED_EDGE('',*,*,#878,.F.);
#878 = EDGE_CURVE('',#879,#857,#881,.T.);
#879 = VERTEX_POINT('',#880);
#880 = CARTESIAN_POINT('',(18.,28.5,48.980056960629));
#881 = LINE('',#882,#883);
#882 = CARTESIAN_POINT('',(18.,28.5,60.));
#883 = VECTOR('',#884,1.);
#884 = DIRECTION('',(-0.,-0.,-1.));
#885 = ORIENTED_EDGE('',*,*,#886,.F.);
#886 = EDGE_CURVE('',#434,#879,#887,.T.);
#887 = B_SPLINE_CURVE_WITH_KNOTS('',6,(#888,#889,#890,#891,#892,#893,
    #894,#895,#896,#897,#898,#899,#900,#901,#902,#903,#904),
  .UNSPECIFIED.,.F.,.F.,(7,5,5,7),(0.,0.267071542355,0.747853706452,1.),
  .UNSPECIFIED.);
#888 = CARTESIAN_POINT('',(15.826439354394,19.925396956028,48.));
#889 = CARTESIAN_POINT('',(16.006668267833,20.258051651974,48.));
#890 = CARTESIAN_POINT('',(16.180101178138,20.598195157931,
    48.003494494716));
#891 = CARTESIAN_POINT('',(16.346229933486,20.945554051888,
    48.01077851536));
#892 = CARTESIAN_POINT('',(16.504577800785,21.299832331055,
    48.022141359503));
#893 = CARTESIAN_POINT('',(16.654697997002,21.660713023904,
    48.03786243102));
#894 = CARTESIAN_POINT('',(17.05085410359,22.688797396169,
    48.094831515217));
#895 = CARTESIAN_POINT('',(17.277785833361,23.370739458631,
    48.146478344891));
#896 = CARTESIAN_POINT('',(17.473600471749,24.069688342642,
    48.214637882413));
#897 = CARTESIAN_POINT('',(17.635950428618,24.781362301964,
    48.300370666994));
#898 = CARTESIAN_POINT('',(17.7634499983,25.501316302979,48.40415339206)
  );
#899 = CARTESIAN_POINT('',(17.904015498489,26.604577617506,
    48.589618082812));
#900 = CARTESIAN_POINT('',(17.942637312388,26.98493172028,
    48.658301223411));
#901 = CARTESIAN_POINT('',(17.971473226069,27.365370686274,
    48.731816132271));
#902 = CARTESIAN_POINT('',(17.990556032374,27.745174770957,48.8100616333
    ));
#903 = CARTESIAN_POINT('',(18.,28.123624201232,48.892880352432));
#904 = CARTESIAN_POINT('',(18.,28.5,48.980056960629));
#905 = ORIENTED_EDGE('',*,*,#433,.F.);
#906 = CYLINDRICAL_SURFACE('',#907,18.);
#907 = AXIS2_PLACEMENT_3D('',#908,#909,#910);
#908 = CARTESIAN_POINT('',(-1.9E-15,28.5,60.));
#909 = DIRECTION('',(0.,0.,1.));
#910 = DIRECTION('',(1.,0.,0.));
#911 = ADVANCED_FACE('',(#912),#940,.F.);
#912 = FACE_BOUND('',#913,.F.);
#913 = EDGE_LOOP('',(#914,#923,#931,#938,#939));
#914 = ORIENTED_EDGE('',*,*,#915,.F.);
#915 = EDGE_CURVE('',#916,#287,#918,.T.);
#916 = VERTEX_POINT('',#917);
#917 = CARTESIAN_POINT('',(40.,41.481792774718,5.294117647059));
#918 = CIRCLE('',#919,38.);
#919 = AXIS2_PLACEMENT_3D('',#920,#921,#922);
#920 = CARTESIAN_POINT('',(40.,19.925396956028,-26.));
#921 = DIRECTION('',(1.,0.,0.));
#922 = DIRECTION('',(0.,1.,0.));
#923 = ORIENTED_EDGE('',*,*,#924,.T.);
#924 = EDGE_CURVE('',#916,#925,#927,.T.);
#925 = VERTEX_POINT('',#926);
#926 = CARTESIAN_POINT('',(18.,41.481792774718,5.294117647059));
#927 = LINE('',#928,#929);
#928 = CARTESIAN_POINT('',(40.,41.481792774718,5.294117647059));
#929 = VECTOR('',#930,1.);
#930 = DIRECTION('',(-1.,-0.,-0.));
#931 = ORIENTED_EDGE('',*,*,#932,.T.);
#932 = EDGE_CURVE('',#925,#857,#933,.T.);
#933 = CIRCLE('',#934,38.);
#934 = AXIS2_PLACEMENT_3D('',#935,#936,#937);
#935 = CARTESIAN_POINT('',(18.,19.925396956028,-26.));
#936 = DIRECTION('',(1.,0.,0.));
#937 = DIRECTION('',(0.,1.,0.));
#938 = ORIENTED_EDGE('',*,*,#856,.F.);
#939 = ORIENTED_EDGE('',*,*,#286,.F.);
#940 = CYLINDRICAL_SURFACE('',#941,38.);
#941 = AXIS2_PLACEMENT_3D('',#942,#943,#944);
#942 = CARTESIAN_POINT('',(40.,19.925396956028,-26.));
#943 = DIRECTION('',(1.,0.,0.));
#944 = DIRECTION('',(0.,1.,0.));
#945 = ADVANCED_FACE('',(#946,#995),#1006,.F.);
#946 = FACE_BOUND('',#947,.F.);
#947 = EDGE_LOOP('',(#948,#959,#966,#967,#968,#969,#970,#979,#988));
#948 = ORIENTED_EDGE('',*,*,#949,.F.);
#949 = EDGE_CURVE('',#950,#952,#954,.T.);
#950 = VERTEX_POINT('',#951);
#951 = CARTESIAN_POINT('',(40.,58.5,0.));
#952 = VERTEX_POINT('',#953);
#953 = CARTESIAN_POINT('',(40.,88.5,30.));
#954 = CIRCLE('',#955,30.);
#955 = AXIS2_PLACEMENT_3D('',#956,#957,#958);
#956 = CARTESIAN_POINT('',(40.,58.5,30.));
#957 = DIRECTION('',(1.,0.,0.));
#958 = DIRECTION('',(0.,1.,0.));
#959 = ORIENTED_EDGE('',*,*,#960,.F.);
#960 = EDGE_CURVE('',#916,#950,#961,.T.);
#961 = CIRCLE('',#962,30.);
#962 = AXIS2_PLACEMENT_3D('',#963,#964,#965);
#963 = CARTESIAN_POINT('',(40.,58.5,30.));
#964 = DIRECTION('',(1.,0.,0.));
#965 = DIRECTION('',(0.,1.,0.));
#966 = ORIENTED_EDGE('',*,*,#915,.T.);
#967 = ORIENTED_EDGE('',*,*,#294,.F.);
#968 = ORIENTED_EDGE('',*,*,#513,.F.);
#969 = ORIENTED_EDGE('',*,*,#450,.T.);
#970 = ORIENTED_EDGE('',*,*,#971,.T.);
#971 = EDGE_CURVE('',#443,#972,#974,.T.);
#972 = VERTEX_POINT('',#973);
#973 = CARTESIAN_POINT('',(40.,41.481792774718,54.705882352941));
#974 = CIRCLE('',#975,38.);
#975 = AXIS2_PLACEMENT_3D('',#976,#977,#978);
#976 = CARTESIAN_POINT('',(40.,19.925396956028,86.));
#977 = DIRECTION('',(1.,0.,0.));
#978 = DIRECTION('',(0.,1.,0.));
#979 = ORIENTED_EDGE('',*,*,#980,.F.);
#980 = EDGE_CURVE('',#981,#972,#983,.T.);
#981 = VERTEX_POINT('',#982);
#982 = CARTESIAN_POINT('',(40.,58.5,60.));
#983 = CIRCLE('',#984,30.);
#984 = AXIS2_PLACEMENT_3D('',#985,#986,#987);
#985 = CARTESIAN_POINT('',(40.,58.5,30.));
#986 = DIRECTION('',(1.,0.,0.));
#987 = DIRECTION('',(0.,1.,0.));
#988 = ORIENTED_EDGE('',*,*,#989,.F.);
#989 = EDGE_CURVE('',#952,#981,#990,.T.);
#990 = CIRCLE('',#991,30.);
#991 = AXIS2_PLACEMENT_3D('',#992,#993,#994);
#992 = CARTESIAN_POINT('',(40.,58.5,30.));
#993 = DIRECTION('',(1.,0.,0.));
#994 = DIRECTION('',(0.,1.,0.));
#995 = FACE_BOUND('',#996,.F.);
#996 = EDGE_LOOP('',(#997));
#997 = ORIENTED_EDGE('',*,*,#998,.T.);
#998 = EDGE_CURVE('',#999,#999,#1001,.T.);
#999 = VERTEX_POINT('',#1000);
#1000 = CARTESIAN_POINT('',(40.,73.5,30.));
#1001 = CIRCLE('',#1002,15.);
#1002 = AXIS2_PLACEMENT_3D('',#1003,#1004,#1005);
#1003 = CARTESIAN_POINT('',(40.,58.5,30.));
#1004 = DIRECTION('',(1.,0.,0.));
#1005 = DIRECTION('',(0.,1.,0.));
#1006 = PLANE('',#1007);
#1007 = AXIS2_PLACEMENT_3D('',#1008,#1009,#1010);
#1008 = CARTESIAN_POINT('',(40.,-88.5,0.));
#1009 = DIRECTION('',(-1.,0.,0.));
#1010 = DIRECTION('',(0.,1.,0.));
#1011 = ADVANCED_FACE('',(#1012),#1022,.F.);
#1012 = FACE_BOUND('',#1013,.F.);
#1013 = EDGE_LOOP('',(#1014,#1015,#1016));
#1014 = ORIENTED_EDGE('',*,*,#562,.F.);
#1015 = ORIENTED_EDGE('',*,*,#390,.T.);
#1016 = ORIENTED_EDGE('',*,*,#1017,.F.);
#1017 = EDGE_CURVE('',#563,#393,#1018,.T.);
#1018 = LINE('',#1019,#1020);
#1019 = CARTESIAN_POINT('',(-21.53553390593,-43.5,43.050252531694));
#1020 = VECTOR('',#1021,1.);
#1021 = DIRECTION('',(0.707106781187,1.570092458684E-16,0.707106781187)
  );
#1022 = PLANE('',#1023);
#1023 = AXIS2_PLACEMENT_3D('',#1024,#1025,#1026);
#1024 = CARTESIAN_POINT('',(0.187516352834,-43.5,29.812483647166));
#1025 = DIRECTION('',(0.,1.,-4.42037604979E-16));
#1026 = DIRECTION('',(0.,4.42037604979E-16,1.));
#1027 = ADVANCED_FACE('',(#1028),#1034,.F.);
#1028 = FACE_BOUND('',#1029,.F.);
#1029 = EDGE_LOOP('',(#1030,#1031,#1032,#1033));
#1030 = ORIENTED_EDGE('',*,*,#603,.T.);
#1031 = ORIENTED_EDGE('',*,*,#1017,.T.);
#1032 = ORIENTED_EDGE('',*,*,#483,.F.);
#1033 = ORIENTED_EDGE('',*,*,#546,.F.);
#1034 = CYLINDRICAL_SURFACE('',#1035,5.);
#1035 = AXIS2_PLACEMENT_3D('',#1036,#1037,#1038);
#1036 = CARTESIAN_POINT('',(-21.53553390593,-48.5,43.050252531694));
#1037 = DIRECTION('',(0.707106781187,1.570092458684E-16,0.707106781187)
  );
#1038 = DIRECTION('',(0.707106781187,-1.570092458684E-16,-0.707106781187
    ));
#1039 = ADVANCED_FACE('',(#1040),#1060,.F.);
#1040 = FACE_BOUND('',#1041,.F.);
#1041 = EDGE_LOOP('',(#1042,#1043,#1044,#1045,#1053));
#1042 = ORIENTED_EDGE('',*,*,#826,.T.);
#1043 = ORIENTED_EDGE('',*,*,#425,.T.);
#1044 = ORIENTED_EDGE('',*,*,#743,.T.);
#1045 = ORIENTED_EDGE('',*,*,#1046,.F.);
#1046 = EDGE_CURVE('',#1047,#735,#1049,.T.);
#1047 = VERTEX_POINT('',#1048);
#1048 = CARTESIAN_POINT('',(-18.,41.481792774718,54.705882352941));
#1049 = LINE('',#1050,#1051);
#1050 = CARTESIAN_POINT('',(40.,41.481792774718,54.705882352941));
#1051 = VECTOR('',#1052,1.);
#1052 = DIRECTION('',(-1.,-0.,-0.));
#1053 = ORIENTED_EDGE('',*,*,#1054,.F.);
#1054 = EDGE_CURVE('',#827,#1047,#1055,.T.);
#1055 = CIRCLE('',#1056,38.);
#1056 = AXIS2_PLACEMENT_3D('',#1057,#1058,#1059);
#1057 = CARTESIAN_POINT('',(-18.,19.925396956028,86.));
#1058 = DIRECTION('',(1.,0.,0.));
#1059 = DIRECTION('',(0.,1.,0.));
#1060 = CYLINDRICAL_SURFACE('',#1061,38.);
#1061 = AXIS2_PLACEMENT_3D('',#1062,#1063,#1064);
#1062 = CARTESIAN_POINT('',(40.,19.925396956028,86.));
#1063 = DIRECTION('',(1.,0.,0.));
#1064 = DIRECTION('',(0.,1.,0.));
#1065 = ADVANCED_FACE('',(#1066),#1086,.F.);
#1066 = FACE_BOUND('',#1067,.F.);
#1067 = EDGE_LOOP('',(#1068,#1069,#1070,#1071,#1080));
#1068 = ORIENTED_EDGE('',*,*,#971,.F.);
#1069 = ORIENTED_EDGE('',*,*,#442,.T.);
#1070 = ORIENTED_EDGE('',*,*,#886,.T.);
#1071 = ORIENTED_EDGE('',*,*,#1072,.T.);
#1072 = EDGE_CURVE('',#879,#1073,#1075,.T.);
#1073 = VERTEX_POINT('',#1074);
#1074 = CARTESIAN_POINT('',(18.,41.481792774718,54.705882352941));
#1075 = CIRCLE('',#1076,38.);
#1076 = AXIS2_PLACEMENT_3D('',#1077,#1078,#1079);
#1077 = CARTESIAN_POINT('',(18.,19.925396956028,86.));
#1078 = DIRECTION('',(1.,0.,0.));
#1079 = DIRECTION('',(0.,1.,0.));
#1080 = ORIENTED_EDGE('',*,*,#1081,.F.);
#1081 = EDGE_CURVE('',#972,#1073,#1082,.T.);
#1082 = LINE('',#1083,#1084);
#1083 = CARTESIAN_POINT('',(40.,41.481792774718,54.705882352941));
#1084 = VECTOR('',#1085,1.);
#1085 = DIRECTION('',(-1.,-0.,-0.));
#1086 = CYLINDRICAL_SURFACE('',#1087,38.);
#1087 = AXIS2_PLACEMENT_3D('',#1088,#1089,#1090);
#1088 = CARTESIAN_POINT('',(40.,19.925396956028,86.));
#1089 = DIRECTION('',(1.,0.,0.));
#1090 = DIRECTION('',(0.,1.,0.));
#1091 = ADVANCED_FACE('',(#1092),#1095,.F.);
#1092 = FACE_BOUND('',#1093,.T.);
#1093 = EDGE_LOOP('',(#1094));
#1094 = ORIENTED_EDGE('',*,*,#643,.T.);
#1095 = PLANE('',#1096);
#1096 = AXIS2_PLACEMENT_3D('',#1097,#1098,#1099);
#1097 = CARTESIAN_POINT('',(7.657664742221E-15,-138.5,30.));
#1098 = DIRECTION('',(3.157967714489E-16,1.,-5.469760530158E-16));
#1099 = DIRECTION('',(0.,5.469760530158E-16,1.));
#1100 = ADVANCED_FACE('',(#1101),#1143,.T.);
#1101 = FACE_BOUND('',#1102,.T.);
#1102 = EDGE_LOOP('',(#1103,#1104,#1105,#1114,#1123,#1132,#1139,#1140,
    #1141,#1142));
#1103 = ORIENTED_EDGE('',*,*,#734,.T.);
#1104 = ORIENTED_EDGE('',*,*,#1046,.F.);
#1105 = ORIENTED_EDGE('',*,*,#1106,.F.);
#1106 = EDGE_CURVE('',#1107,#1047,#1109,.T.);
#1107 = VERTEX_POINT('',#1108);
#1108 = CARTESIAN_POINT('',(-18.,58.5,60.));
#1109 = CIRCLE('',#1110,30.);
#1110 = AXIS2_PLACEMENT_3D('',#1111,#1112,#1113);
#1111 = CARTESIAN_POINT('',(-18.,58.5,30.));
#1112 = DIRECTION('',(1.,0.,0.));
#1113 = DIRECTION('',(0.,1.,0.));
#1114 = ORIENTED_EDGE('',*,*,#1115,.F.);
#1115 = EDGE_CURVE('',#1116,#1107,#1118,.T.);
#1116 = VERTEX_POINT('',#1117);
#1117 = CARTESIAN_POINT('',(-18.,88.5,30.));
#1118 = CIRCLE('',#1119,30.);
#1119 = AXIS2_PLACEMENT_3D('',#1120,#1121,#1122);
#1120 = CARTESIAN_POINT('',(-18.,58.5,30.));
#1121 = DIRECTION('',(1.,0.,0.));
#1122 = DIRECTION('',(0.,1.,0.));
#1123 = ORIENTED_EDGE('',*,*,#1124,.F.);
#1124 = EDGE_CURVE('',#1125,#1116,#1127,.T.);
#1125 = VERTEX_POINT('',#1126);
#1126 = CARTESIAN_POINT('',(-18.,58.5,0.));
#1127 = CIRCLE('',#1128,30.);
#1128 = AXIS2_PLACEMENT_3D('',#1129,#1130,#1131);
#1129 = CARTESIAN_POINT('',(-18.,58.5,30.));
#1130 = DIRECTION('',(1.,0.,0.));
#1131 = DIRECTION('',(0.,1.,0.));
#1132 = ORIENTED_EDGE('',*,*,#1133,.F.);
#1133 = EDGE_CURVE('',#780,#1125,#1134,.T.);
#1134 = CIRCLE('',#1135,30.);
#1135 = AXIS2_PLACEMENT_3D('',#1136,#1137,#1138);
#1136 = CARTESIAN_POINT('',(-18.,58.5,30.));
#1137 = DIRECTION('',(1.,0.,0.));
#1138 = DIRECTION('',(0.,1.,0.));
#1139 = ORIENTED_EDGE('',*,*,#790,.T.);
#1140 = ORIENTED_EDGE('',*,*,#705,.T.);
#1141 = ORIENTED_EDGE('',*,*,#716,.T.);
#1142 = ORIENTED_EDGE('',*,*,#725,.T.);
#1143 = CYLINDRICAL_SURFACE('',#1144,30.);
#1144 = AXIS2_PLACEMENT_3D('',#1145,#1146,#1147);
#1145 = CARTESIAN_POINT('',(40.,58.5,30.));
#1146 = DIRECTION('',(1.,0.,0.));
#1147 = DIRECTION('',(0.,1.,0.));
#1148 = ADVANCED_FACE('',(#1149),#1168,.F.);
#1149 = FACE_BOUND('',#1150,.F.);
#1150 = EDGE_LOOP('',(#1151,#1160,#1166,#1167));
#1151 = ORIENTED_EDGE('',*,*,#1152,.F.);
#1152 = EDGE_CURVE('',#1153,#1153,#1155,.T.);
#1153 = VERTEX_POINT('',#1154);
#1154 = CARTESIAN_POINT('',(-18.,73.5,30.));
#1155 = CIRCLE('',#1156,15.);
#1156 = AXIS2_PLACEMENT_3D('',#1157,#1158,#1159);
#1157 = CARTESIAN_POINT('',(-18.,58.5,30.));
#1158 = DIRECTION('',(1.,0.,0.));
#1159 = DIRECTION('',(0.,1.,0.));
#1160 = ORIENTED_EDGE('',*,*,#1161,.T.);
#1161 = EDGE_CURVE('',#1153,#763,#1162,.T.);
#1162 = LINE('',#1163,#1164);
#1163 = CARTESIAN_POINT('',(40.,73.5,30.));
#1164 = VECTOR('',#1165,1.);
#1165 = DIRECTION('',(-1.,-0.,-0.));
#1166 = ORIENTED_EDGE('',*,*,#762,.T.);
#1167 = ORIENTED_EDGE('',*,*,#1161,.F.);
#1168 = CYLINDRICAL_SURFACE('',#1169,15.);
#1169 = AXIS2_PLACEMENT_3D('',#1170,#1171,#1172);
#1170 = CARTESIAN_POINT('',(40.,58.5,30.));
#1171 = DIRECTION('',(1.,0.,0.));
#1172 = DIRECTION('',(0.,1.,0.));
#1173 = ADVANCED_FACE('',(#1174,#1183),#1186,.F.);
#1174 = FACE_BOUND('',#1175,.F.);
#1175 = EDGE_LOOP('',(#1176,#1177,#1178,#1179,#1180,#1181,#1182));
#1176 = ORIENTED_EDGE('',*,*,#1106,.F.);
#1177 = ORIENTED_EDGE('',*,*,#1115,.F.);
#1178 = ORIENTED_EDGE('',*,*,#1124,.F.);
#1179 = ORIENTED_EDGE('',*,*,#1133,.F.);
#1180 = ORIENTED_EDGE('',*,*,#779,.T.);
#1181 = ORIENTED_EDGE('',*,*,#848,.F.);
#1182 = ORIENTED_EDGE('',*,*,#1054,.T.);
#1183 = FACE_BOUND('',#1184,.F.);
#1184 = EDGE_LOOP('',(#1185));
#1185 = ORIENTED_EDGE('',*,*,#1152,.T.);
#1186 = PLANE('',#1187);
#1187 = AXIS2_PLACEMENT_3D('',#1188,#1189,#1190);
#1188 = CARTESIAN_POINT('',(-18.,88.5,60.));
#1189 = DIRECTION('',(-1.,0.,0.));
#1190 = DIRECTION('',(0.,-1.,0.));
#1191 = ADVANCED_FACE('',(#1192,#1231),#1242,.F.);
#1192 = FACE_BOUND('',#1193,.F.);
#1193 = EDGE_LOOP('',(#1194,#1205,#1212,#1213,#1214,#1215,#1224));
#1194 = ORIENTED_EDGE('',*,*,#1195,.T.);
#1195 = EDGE_CURVE('',#1196,#1198,#1200,.T.);
#1196 = VERTEX_POINT('',#1197);
#1197 = CARTESIAN_POINT('',(18.,88.5,30.));
#1198 = VERTEX_POINT('',#1199);
#1199 = CARTESIAN_POINT('',(18.,58.5,60.));
#1200 = CIRCLE('',#1201,30.);
#1201 = AXIS2_PLACEMENT_3D('',#1202,#1203,#1204);
#1202 = CARTESIAN_POINT('',(18.,58.5,30.));
#1203 = DIRECTION('',(1.,0.,0.));
#1204 = DIRECTION('',(0.,1.,0.));
#1205 = ORIENTED_EDGE('',*,*,#1206,.T.);
#1206 = EDGE_CURVE('',#1198,#1073,#1207,.T.);
#1207 = CIRCLE('',#1208,30.);
#1208 = AXIS2_PLACEMENT_3D('',#1209,#1210,#1211);
#1209 = CARTESIAN_POINT('',(18.,58.5,30.));
#1210 = DIRECTION('',(1.,0.,0.));
#1211 = DIRECTION('',(0.,1.,0.));
#1212 = ORIENTED_EDGE('',*,*,#1072,.F.);
#1213 = ORIENTED_EDGE('',*,*,#878,.T.);
#1214 = ORIENTED_EDGE('',*,*,#932,.F.);
#1215 = ORIENTED_EDGE('',*,*,#1216,.T.);
#1216 = EDGE_CURVE('',#925,#1217,#1219,.T.);
#1217 = VERTEX_POINT('',#1218);
#1218 = CARTESIAN_POINT('',(18.,58.5,0.));
#1219 = CIRCLE('',#1220,30.);
#1220 = AXIS2_PLACEMENT_3D('',#1221,#1222,#1223);
#1221 = CARTESIAN_POINT('',(18.,58.5,30.));
#1222 = DIRECTION('',(1.,0.,0.));
#1223 = DIRECTION('',(0.,1.,0.));
#1224 = ORIENTED_EDGE('',*,*,#1225,.T.);
#1225 = EDGE_CURVE('',#1217,#1196,#1226,.T.);
#1226 = CIRCLE('',#1227,30.);
#1227 = AXIS2_PLACEMENT_3D('',#1228,#1229,#1230);
#1228 = CARTESIAN_POINT('',(18.,58.5,30.));
#1229 = DIRECTION('',(1.,0.,0.));
#1230 = DIRECTION('',(0.,1.,0.));
#1231 = FACE_BOUND('',#1232,.F.);
#1232 = EDGE_LOOP('',(#1233));
#1233 = ORIENTED_EDGE('',*,*,#1234,.F.);
#1234 = EDGE_CURVE('',#1235,#1235,#1237,.T.);
#1235 = VERTEX_POINT('',#1236);
#1236 = CARTESIAN_POINT('',(18.,73.5,30.));
#1237 = CIRCLE('',#1238,15.);
#1238 = AXIS2_PLACEMENT_3D('',#1239,#1240,#1241);
#1239 = CARTESIAN_POINT('',(18.,58.5,30.));
#1240 = DIRECTION('',(1.,0.,0.));
#1241 = DIRECTION('',(0.,1.,0.));
#1242 = PLANE('',#1243);
#1243 = AXIS2_PLACEMENT_3D('',#1244,#1245,#1246);
#1244 = CARTESIAN_POINT('',(18.,28.5,60.));
#1245 = DIRECTION('',(1.,0.,0.));
#1246 = DIRECTION('',(0.,1.,0.));
#1247 = ADVANCED_FACE('',(#1248),#1260,.T.);
#1248 = FACE_BOUND('',#1249,.T.);
#1249 = EDGE_LOOP('',(#1250,#1251,#1252,#1253,#1254,#1255,#1256,#1257,
    #1258,#1259));
#1250 = ORIENTED_EDGE('',*,*,#924,.T.);
#1251 = ORIENTED_EDGE('',*,*,#1216,.T.);
#1252 = ORIENTED_EDGE('',*,*,#1225,.T.);
#1253 = ORIENTED_EDGE('',*,*,#1195,.T.);
#1254 = ORIENTED_EDGE('',*,*,#1206,.T.);
#1255 = ORIENTED_EDGE('',*,*,#1081,.F.);
#1256 = ORIENTED_EDGE('',*,*,#980,.F.);
#1257 = ORIENTED_EDGE('',*,*,#989,.F.);
#1258 = ORIENTED_EDGE('',*,*,#949,.F.);
#1259 = ORIENTED_EDGE('',*,*,#960,.F.);
#1260 = CYLINDRICAL_SURFACE('',#1261,30.);
#1261 = AXIS2_PLACEMENT_3D('',#1262,#1263,#1264);
#1262 = CARTESIAN_POINT('',(40.,58.5,30.));
#1263 = DIRECTION('',(1.,0.,0.));
#1264 = DIRECTION('',(0.,1.,0.));
#1265 = ADVANCED_FACE('',(#1266),#1277,.F.);
#1266 = FACE_BOUND('',#1267,.F.);
#1267 = EDGE_LOOP('',(#1268,#1269,#1275,#1276));
#1268 = ORIENTED_EDGE('',*,*,#998,.F.);
#1269 = ORIENTED_EDGE('',*,*,#1270,.T.);
#1270 = EDGE_CURVE('',#999,#1235,#1271,.T.);
#1271 = LINE('',#1272,#1273);
#1272 = CARTESIAN_POINT('',(40.,73.5,30.));
#1273 = VECTOR('',#1274,1.);
#1274 = DIRECTION('',(-1.,-0.,-0.));
#1275 = ORIENTED_EDGE('',*,*,#1234,.T.);
#1276 = ORIENTED_EDGE('',*,*,#1270,.F.);
#1277 = CYLINDRICAL_SURFACE('',#1278,15.);
#1278 = AXIS2_PLACEMENT_3D('',#1279,#1280,#1281);
#1279 = CARTESIAN_POINT('',(40.,58.5,30.));
#1280 = DIRECTION('',(1.,0.,0.));
#1281 = DIRECTION('',(0.,1.,0.));
#1282 = ( GEOMETRIC_REPRESENTATION_CONTEXT(3) 
GLOBAL_UNCERTAINTY_ASSIGNED_CONTEXT((#1286)) 
GLOBAL_UNIT_ASSIGNED_CONTEXT((#1283,#1284,#1285)) REPRESENTATION_CONTEXT
('Context #1','3D Context with UNIT and UNCERTAINTY') );
#1283 = ( LENGTH_UNIT() NAMED_UNIT(*) SI_UNIT(.MILLI.,.METRE.) );
#1284 = ( NAMED_UNIT(*) PLANE_ANGLE_UNIT() SI_UNIT($,.RADIAN.) );
#1285 = ( NAMED_UNIT(*) SI_UNIT($,.STERADIAN.) SOLID_ANGLE_UNIT() );
#1286 = UNCERTAINTY_MEASURE_WITH_UNIT(LENGTH_MEASURE(2.E-05),#1283,
  'distance_accuracy_value','confusion accuracy');
#1287 = PRODUCT_RELATED_PRODUCT_CATEGORY('part',$,(#7));
#1288 = MECHANICAL_DESIGN_GEOMETRIC_PRESENTATION_REPRESENTATION('',(
    #1289),#1282);
#1289 = STYLED_ITEM('color',(#1290),#15);
#1290 = PRESENTATION_STYLE_ASSIGNMENT((#1291,#1297));
#1291 = SURFACE_STYLE_USAGE(.BOTH.,#1292);
#1292 = SURFACE_SIDE_STYLE('',(#1293));
#1293 = SURFACE_STYLE_FILL_AREA(#1294);
#1294 = FILL_AREA_STYLE('',(#1295));
#1295 = FILL_AREA_STYLE_COLOUR('',#1296);
#1296 = COLOUR_RGB('',0.447058818107,0.474509808674,0.501960817233);
#1297 = CURVE_STYLE('',#1298,POSITIVE_LENGTH_MEASURE(0.1),#1299);
#1298 = DRAUGHTING_PRE_DEFINED_CURVE_FONT('continuous');
#1299 = COLOUR_RGB('',9.803921802644E-02,9.803921802644E-02,
  9.803921802644E-02);
ENDSEC;
END-ISO-10303-21;
